<svg width="29" height="28" viewBox="0 0 29 28" fill="none" xmlns="http://www.w3.org/2000/svg">
<path fill-rule="evenodd" clip-rule="evenodd" d="M0 4.4375C0 4.22201 0.0856024 4.01535 0.237976 3.86298C0.390349 3.7106 0.597012 3.625 0.8125 3.625H3.25C3.43124 3.62505 3.60726 3.68569 3.75006 3.79729C3.89287 3.90889 3.99427 4.06502 4.03813 4.24087L4.69625 6.875H23.5625C23.6827 6.87507 23.8013 6.9018 23.9099 6.95325C24.0185 7.0047 24.1143 7.07959 24.1905 7.17254C24.2666 7.26548 24.3212 7.37416 24.3503 7.49075C24.3794 7.60733 24.3823 7.72892 24.3587 7.84675L22.7337 15.9717C22.6982 16.1489 22.6046 16.3092 22.4677 16.4272C22.3309 16.5452 22.1586 16.6143 21.9781 16.6234L6.708 17.3904L7.17438 19.875H21.125C21.3405 19.875 21.5472 19.9606 21.6995 20.113C21.8519 20.2653 21.9375 20.472 21.9375 20.6875C21.9375 20.903 21.8519 21.1097 21.6995 21.262C21.5472 21.4144 21.3405 21.5 21.125 21.5H6.5C6.31058 21.4998 6.12717 21.4335 5.98148 21.3124C5.83579 21.1913 5.73698 21.0232 5.70213 20.837L3.26625 7.86138L2.61625 5.25H0.8125C0.597012 5.25 0.390349 5.1644 0.237976 5.01202C0.0856024 4.85965 0 4.65299 0 4.4375ZM5.04075 8.5L6.40575 15.7784L21.2648 15.0325L22.5713 8.5H5.04075ZM8.125 21.5C7.26305 21.5 6.4364 21.8424 5.8269 22.4519C5.21741 23.0614 4.875 23.888 4.875 24.75C4.875 25.612 5.21741 26.4386 5.8269 27.0481C6.4364 27.6576 7.26305 28 8.125 28C8.98695 28 9.8136 27.6576 10.4231 27.0481C11.0326 26.4386 11.375 25.612 11.375 24.75C11.375 23.888 11.0326 23.0614 10.4231 22.4519C9.8136 21.8424 8.98695 21.5 8.125 21.5ZM19.5 21.5C18.638 21.5 17.8114 21.8424 17.2019 22.4519C16.5924 23.0614 16.25 23.888 16.25 24.75C16.25 25.612 16.5924 26.4386 17.2019 27.0481C17.8114 27.6576 18.638 28 19.5 28C20.362 28 21.1886 27.6576 21.7981 27.0481C22.4076 26.4386 22.75 25.612 22.75 24.75C22.75 23.888 22.4076 23.0614 21.7981 22.4519C21.1886 21.8424 20.362 21.5 19.5 21.5ZM8.125 23.125C7.69402 23.125 7.2807 23.2962 6.97595 23.601C6.67121 23.9057 6.5 24.319 6.5 24.75C6.5 25.181 6.67121 25.5943 6.97595 25.899C7.2807 26.2038 7.69402 26.375 8.125 26.375C8.55598 26.375 8.9693 26.2038 9.27405 25.899C9.57879 25.5943 9.75 25.181 9.75 24.75C9.75 24.319 9.57879 23.9057 9.27405 23.601C8.9693 23.2962 8.55598 23.125 8.125 23.125ZM19.5 23.125C19.069 23.125 18.6557 23.2962 18.351 23.601C18.0462 23.9057 17.875 24.319 17.875 24.75C17.875 25.181 18.0462 25.5943 18.351 25.899C18.6557 26.2038 19.069 26.375 19.5 26.375C19.931 26.375 20.3443 26.2038 20.649 25.899C20.9538 25.5943 21.125 25.181 21.125 24.75C21.125 24.319 20.9538 23.9057 20.649 23.601C20.3443 23.2962 19.931 23.125 19.5 23.125Z" fill="#272727"/>
<circle cx="23.5" cy="5.5" r="5.5" fill="#56B280"/>
<path d="M24.4082 1.86621V9H23.2314V3.2627L21.4883 3.85352V2.88184L24.2666 1.86621H24.4082Z" fill="white"/>
</svg>
