<svg width="23" height="23" viewBox="0 0 23 23" fill="none" xmlns="http://www.w3.org/2000/svg">
<g id="Cart">
<path id="Vector" fill-rule="evenodd" clip-rule="evenodd" d="M0 2.15625C0 1.96563 0.0757252 1.78281 0.210517 1.64802C0.345309 1.51323 0.528126 1.4375 0.71875 1.4375H2.875C3.03533 1.43754 3.19103 1.49119 3.31736 1.58991C3.44369 1.68863 3.53339 1.82675 3.57219 1.98231L4.15437 4.3125H20.8437C20.95 4.31256 21.055 4.3362 21.1511 4.38172C21.2471 4.42723 21.3319 4.49348 21.3993 4.57571C21.4666 4.65793 21.5149 4.75407 21.5407 4.8572C21.5664 4.96033 21.569 5.06789 21.5481 5.17213L20.1106 12.3596C20.0792 12.5164 19.9964 12.6581 19.8753 12.7625C19.7543 12.8669 19.6018 12.928 19.4422 12.9361L5.934 13.6146L6.34656 15.8125H18.6875C18.8781 15.8125 19.0609 15.8882 19.1957 16.023C19.3305 16.1578 19.4062 16.3406 19.4062 16.5312C19.4062 16.7219 19.3305 16.9047 19.1957 17.0395C19.0609 17.1743 18.8781 17.25 18.6875 17.25H5.75C5.58243 17.2498 5.42019 17.1911 5.29131 17.0841C5.16243 16.977 5.07502 16.8282 5.04419 16.6635L2.88937 5.18506L2.31437 2.875H0.71875C0.528126 2.875 0.345309 2.79927 0.210517 2.66448C0.0757252 2.52969 0 2.34687 0 2.15625ZM4.45912 5.75L5.66662 12.1886L18.8111 11.5288L19.9669 5.75H4.45912ZM7.1875 17.25C6.425 17.25 5.69373 17.5529 5.15457 18.0921C4.6154 18.6312 4.3125 19.3625 4.3125 20.125C4.3125 20.8875 4.6154 21.6188 5.15457 22.1579C5.69373 22.6971 6.425 23 7.1875 23C7.95 23 8.68126 22.6971 9.22043 22.1579C9.7596 21.6188 10.0625 20.8875 10.0625 20.125C10.0625 19.3625 9.7596 18.6312 9.22043 18.0921C8.68126 17.5529 7.95 17.25 7.1875 17.25ZM17.25 17.25C16.4875 17.25 15.7562 17.5529 15.2171 18.0921C14.6779 18.6312 14.375 19.3625 14.375 20.125C14.375 20.8875 14.6779 21.6188 15.2171 22.1579C15.7562 22.6971 16.4875 23 17.25 23C18.0125 23 18.7438 22.6971 19.2829 22.1579C19.8221 21.6188 20.125 20.8875 20.125 20.125C20.125 19.3625 19.8221 18.6312 19.2829 18.0921C18.7438 17.5529 18.0125 17.25 17.25 17.25ZM7.1875 18.6875C6.80625 18.6875 6.44062 18.839 6.17103 19.1085C5.90145 19.3781 5.75 19.7438 5.75 20.125C5.75 20.5062 5.90145 20.8719 6.17103 21.1415C6.44062 21.411 6.80625 21.5625 7.1875 21.5625C7.56875 21.5625 7.93438 21.411 8.20397 21.1415C8.47355 20.8719 8.625 20.5062 8.625 20.125C8.625 19.7438 8.47355 19.3781 8.20397 19.1085C7.93438 18.839 7.56875 18.6875 7.1875 18.6875ZM17.25 18.6875C16.8687 18.6875 16.5031 18.839 16.2335 19.1085C15.9639 19.3781 15.8125 19.7438 15.8125 20.125C15.8125 20.5062 15.9639 20.8719 16.2335 21.1415C16.5031 21.411 16.8687 21.5625 17.25 21.5625C17.6312 21.5625 17.9969 21.411 18.2665 21.1415C18.536 20.8719 18.6875 20.5062 18.6875 20.125C18.6875 19.7438 18.536 19.3781 18.2665 19.1085C17.9969 18.839 17.6312 18.6875 17.25 18.6875Z" fill="#272727"/>
</g>
</svg>
