<svg width="10" height="10" viewBox="0 0 10 10" fill="none" xmlns="http://www.w3.org/2000/svg">
<path fill-rule="evenodd" clip-rule="evenodd" d="M2.90364 1.02882C2.93267 0.999718 2.96715 0.976629 3.00512 0.960875C3.04308 0.945121 3.08378 0.937012 3.12489 0.937012C3.16599 0.937012 3.20669 0.945121 3.24466 0.960875C3.28262 0.976629 3.31711 0.999718 3.34614 1.02882L7.09614 4.77882C7.12524 4.80785 7.14833 4.84233 7.16408 4.8803C7.17983 4.91827 7.18794 4.95897 7.18794 5.00007C7.18794 5.04118 7.17983 5.08188 7.16408 5.11984C7.14833 5.15781 7.12524 5.19229 7.09614 5.22132L3.34614 8.97132C3.28746 9.03 3.20787 9.06297 3.12489 9.06297C3.0419 9.06297 2.96232 9.03 2.90364 8.97132C2.84496 8.91264 2.81199 8.83306 2.81199 8.75007C2.81199 8.66709 2.84496 8.5875 2.90364 8.52882L6.43301 5.00007L2.90364 1.47132C2.87454 1.44229 2.85145 1.40781 2.83569 1.36984C2.81994 1.33188 2.81183 1.29117 2.81183 1.25007C2.81183 1.20897 2.81994 1.16827 2.83569 1.1303C2.85145 1.09233 2.87454 1.05785 2.90364 1.02882Z" fill="black"/>
</svg>
