<svg width="18" height="10" viewBox="0 0 18 10" fill="none" xmlns="http://www.w3.org/2000/svg">
<path d="M15.9685 0.718771L15.9685 0.718764C16.0383 0.649046 16.121 0.593744 16.2121 0.556013C16.3032 0.518282 16.4008 0.498862 16.4994 0.498862C16.598 0.498862 16.6957 0.518282 16.7867 0.556013C16.8778 0.593743 16.9606 0.649046 17.0303 0.718764C17.1 0.78848 17.1553 0.871246 17.1931 0.962338C17.2308 1.05343 17.2502 1.15106 17.2502 1.24965C17.2502 1.34825 17.2308 1.44588 17.1931 1.53697C17.1553 1.62806 17.1 1.71082 17.0303 1.78054L9.53043 9.28043L9.53031 9.28054L9.44192 9.19215C9.38387 9.25036 9.3149 9.29653 9.23897 9.32804C9.16303 9.35955 9.08163 9.37577 8.99942 9.37577C8.91722 9.37577 8.83581 9.35955 8.75988 9.32804C8.68395 9.29653 8.61498 9.25036 8.55692 9.19215L15.9685 0.718771ZM15.9685 0.718771L8.99942 7.68911L15.9685 0.718771ZM1.05692 0.807152L0.968647 0.718652C0.898802 0.78832 0.843388 0.871084 0.805578 0.962202C0.767769 1.05332 0.748306 1.151 0.748306 1.24965C0.748306 1.3483 0.767769 1.44598 0.805578 1.5371C0.84338 1.6282 0.898778 1.71095 0.968601 1.78061C0.968617 1.78062 0.968632 1.78064 0.968647 1.78065L8.46842 9.28043L2.03042 0.718875L1.94193 0.807149L2.03032 0.718771L2.03036 0.71881C1.9607 0.648996 1.87796 0.593604 1.78687 0.555806C1.69576 0.517997 1.59807 0.498535 1.49942 0.498535C1.40077 0.498535 1.30309 0.517997 1.21197 0.555806C1.12086 0.593616 1.03809 0.649031 0.968424 0.718875L1.05692 0.807152ZM1.05692 0.807152C0.99872 0.865209 0.952541 0.934179 0.921033 1.01011C0.889525 1.08604 0.873306 1.16744 0.873306 1.24965C0.873306 1.33186 0.889525 1.41326 0.921033 1.48919C0.952541 1.56513 0.99872 1.6341 1.05692 1.69215V0.807152Z" fill="#56B280" stroke="#56B280" stroke-width="0.25"/>
</svg>
